<svg width="17" height="18" viewBox="0 0 17 18" xmlns="http://www.w3.org/2000/svg">
    <path fill-rule="evenodd" clip-rule="evenodd"
        d="M17 1C17 0.447715 16.5523 0 16 0C15.4477 0 15 0.447715 15 1V3.70551C14.4409 3.07195 13.7713 2.51697 13 2.07167C9.17365 -0.137471 4.28093 1.17353 2.07179 4.99987C-0.137349 8.82621 1.17365 13.7189 4.99999 15.9281C8.82633 18.1372 13.7191 16.8262 15.9282 12.9999C16.2043 12.5216 16.0405 11.91 15.5622 11.6338C15.0839 11.3577 14.4723 11.5216 14.1961 11.9999C12.5393 14.8696 8.86975 15.8529 5.99999 14.196C3.13024 12.5392 2.14699 8.86963 3.80384 5.99987C5.46069 3.13012 9.13024 2.14686 12 3.80372C12.5677 4.13147 13.0611 4.53736 13.4748 5H11C10.4477 5 10 5.44772 10 6C10 6.55228 10.4477 7 11 7H15.3068C15.3196 7.00025 15.3323 7.00025 15.3451 7H16C16.5523 7 17 6.55228 17 6V1Z"
        />
</svg>