<svg width="16" height="16" viewBox="0 0 16 16" xmlns="http://www.w3.org/2000/svg">
    <path fill-rule="evenodd" clip-rule="evenodd"
        d="M0.928978 0.928932C0.538453 1.31946 0.538454 1.95262 0.928978 2.34315L6.58583 8L0.928979 13.6569C0.538455 14.0474 0.538455 14.6805 0.928979 15.0711C1.3195 15.4616 1.95267 15.4616 2.34319 15.0711L8.00005 9.41421L13.6569 15.0711C14.0474 15.4616 14.6806 15.4616 15.0711 15.0711C15.4616 14.6805 15.4616 14.0474 15.0711 13.6569L9.41426 8L15.0711 2.34315C15.4616 1.95262 15.4616 1.31946 15.0711 0.928932C14.6806 0.538408 14.0474 0.538409 13.6569 0.928933L8.00005 6.58579L2.34319 0.928933C1.95267 0.538409 1.3195 0.538408 0.928978 0.928932Z"
        />
</svg>