<svg width="56" height="54" viewBox="0 0 56 54" xmlns="http://www.w3.org/2000/svg">
    <path fill-rule="evenodd" clip-rule="evenodd"
        d="M43.0606 14.1143C42.8972 11.8633 41.9652 9.76279 40.376 8.10933C38.5288 6.18694 36.0434 5.12847 33.3772 5.12847C32.1524 5.12847 30.9346 5.36126 29.8031 5.8075C28.8362 4.21959 27.5134 2.87077 25.9318 1.86902C24.0014 0.646259 21.7677 0 19.473 0C12.8104 0 7.38948 5.42051 7.38948 12.0831C7.38948 13.2117 7.54411 14.3215 7.84959 15.3942C5.8272 16.3691 4.09474 17.8452 2.79844 19.7071C1.27019 21.9022 0.462158 24.4814 0.462158 27.1664C0.462158 34.3702 6.32303 40.2311 13.5277 40.2311H14.1739V51.8536C14.1739 53.0369 15.1383 54 16.3237 54H34.9811C36.1644 54 37.1275 53.0369 37.1275 51.8536V49.8413H39.0179C40.2033 49.8413 41.1676 48.8783 41.1676 47.6946V40.2311H42.4728C49.677 40.2311 55.5379 34.3702 55.5379 27.166C55.5379 20.1592 49.993 14.4232 43.0606 14.1143ZM36.0703 47.6895L36.0629 47.6892L36.0553 47.6888L36.0513 47.6887C36.0446 47.6887 36.0383 47.6895 36.0316 47.6895L20.3634 47.695V41.0147C20.3634 40.4202 19.8819 39.9382 19.2873 39.9382C18.6927 39.9382 18.2107 40.4202 18.2107 41.0147V47.695C18.2107 48.8783 19.1751 49.8413 20.3605 49.8413H34.9769L34.9811 51.8478L16.3266 51.8536V43.5056L16.3258 39.1713C16.3258 39.1698 16.3258 39.1682 16.3259 39.1667C16.326 39.1654 16.3261 39.1641 16.3262 39.1629L16.3262 39.1628C16.3264 39.1602 16.3266 39.1576 16.3266 39.155C16.3266 39.152 16.3264 39.1491 16.3262 39.1462C16.326 39.1435 16.3258 39.1408 16.3258 39.1382L16.3232 27.6299H18.2107V32.4226C18.2107 33.0172 18.6927 33.4991 19.2873 33.4991C19.8814 33.4991 20.3634 33.0172 20.3634 32.4226L20.3617 26.592L20.3625 26.577C20.3629 26.5691 20.3634 26.5612 20.3634 26.5533C20.3634 26.5457 20.363 26.5381 20.3625 26.5305V26.5304L20.3617 26.5143L20.3605 23.4712H23.8489C23.9115 25.1747 25.315 26.5411 27.0319 26.5411C28.7492 26.5411 30.1527 25.1747 30.2153 23.4712H32.7339V26.5567C32.7339 28.174 34.0483 29.4897 35.6639 29.4897H39.015L39.0167 39.1209C39.0162 39.1323 39.015 39.1432 39.015 39.155C39.015 39.1663 39.0162 39.1772 39.0167 39.1886L39.0179 47.6887L36.0703 47.6895ZM24.9296 18.6961C24.7065 18.6949 24.4943 18.6209 24.3153 18.4827C23.8674 18.1356 23.7846 17.4885 24.1313 17.0389L26.1163 14.4627C26.1331 14.4404 26.1495 14.4173 26.165 14.3938C26.3579 14.0979 26.6819 13.9215 27.0319 13.9215C27.3819 13.9215 27.7059 14.0984 27.8992 14.3938C27.9143 14.4173 27.9307 14.4404 27.9479 14.4627L29.9333 17.0397C30.2796 17.4885 30.1968 18.1356 29.7484 18.4822C29.5699 18.6205 29.3572 18.6949 29.1341 18.6961C28.5429 18.7003 28.0656 19.181 28.0656 19.7727V23.3519C28.0656 23.9238 27.6021 24.3885 27.0319 24.3885C26.4621 24.3885 25.9982 23.9238 25.9982 23.3519V19.7727C25.9982 19.181 25.5209 18.7003 24.9296 18.6961ZM34.8862 26.5563V24.9167L37.4124 27.337H35.6639C35.2425 27.337 34.8862 26.9794 34.8862 26.5563ZM42.4723 38.0784H41.1672V28.4131C41.1672 28.1219 41.0458 27.8379 40.8357 27.6362L34.5546 21.6177C34.3563 21.4278 34.0844 21.3186 33.81 21.3186H30.2182V20.6559C30.5199 20.545 30.8048 20.387 31.0662 20.1845C32.4515 19.1121 32.7079 17.1116 31.6381 15.7253L29.6762 13.179C29.0812 12.2953 28.0962 11.7692 27.0319 11.7692C25.9675 11.7692 24.9826 12.2953 24.3876 13.179L22.4266 15.7245C21.3563 17.1116 21.6126 19.1121 22.9976 20.1849C23.259 20.387 23.5443 20.545 23.8455 20.6559V21.3186H20.3605C19.1751 21.3186 18.2107 22.2829 18.2107 23.4678V25.4772H16.3237C15.1383 25.4772 14.1739 26.4416 14.1739 27.6269V38.0784H13.5277C7.51008 38.0784 2.61481 33.1836 2.61481 27.1664C2.61481 22.63 5.34482 18.6365 9.56987 16.9918C10.1203 16.7775 10.3955 16.1594 10.1859 15.6069C9.75896 14.4816 9.54214 13.2962 9.54214 12.0831C9.54214 6.60755 13.9975 2.15266 19.4734 2.15266C23.2762 2.15266 26.6886 4.27085 28.379 7.67989C28.508 7.93999 28.7366 8.13706 29.0127 8.22614C29.2887 8.31522 29.5896 8.28875 29.8463 8.15303C30.9401 7.57442 32.128 7.28113 33.3772 7.28113C35.4522 7.28113 37.3863 8.10513 38.8238 9.60102C40.2634 11.0986 41.0105 13.0676 40.9277 15.1442C40.9155 15.4442 41.0294 15.7354 41.242 15.9476C41.4538 16.1598 41.7441 16.2771 42.0454 16.2624C42.1879 16.2569 42.3278 16.254 42.4728 16.254C48.4899 16.254 53.3856 21.1492 53.3856 27.1664C53.3856 33.1836 48.4899 38.0784 42.4723 38.0784ZM35.0021 31.944H26.3335C25.7393 31.944 25.2574 32.4259 25.2574 33.0201C25.2574 33.6147 25.7389 34.0966 26.3335 34.0966H35.0021C35.5967 34.0966 36.0787 33.6147 36.0787 33.0201C36.0787 32.4259 35.5967 31.944 35.0021 31.944ZM24.2632 36.9229H35.0021C35.5967 36.9229 36.0787 37.4045 36.0787 37.9991C36.0787 38.5936 35.5967 39.0756 35.0021 39.0756H24.2632C23.6686 39.0756 23.1871 38.5936 23.1871 37.9991C23.1871 37.4045 23.669 36.9229 24.2632 36.9229ZM35.0021 41.9047H24.2632C23.669 41.9047 23.1871 42.3866 23.1871 42.9812C23.1871 43.5753 23.6686 44.0573 24.2632 44.0573H35.0021C35.5967 44.0573 36.0787 43.5758 36.0787 42.9812C36.0787 42.3866 35.5967 41.9047 35.0021 41.9047ZM18.2108 36.6972C18.2108 36.1027 18.6927 35.6211 19.2873 35.6211C19.8819 35.6211 20.3634 36.1027 20.3634 36.6972V36.7187C20.3634 37.3132 19.8814 37.7948 19.2873 37.7948C18.6927 37.7948 18.2108 37.3132 18.2108 36.7187V36.6972Z"
        />
</svg>