<svg id="Layer_1" data-name="Layer 1" xmlns="http://www.w3.org/2000/svg" viewBox="0 0 560 560"><defs><style>.cls-1{fill:#fafafa;}</style></defs><circle class="cls-1" cx="40" cy="40" r="40"/><circle class="cls-1" cx="120" cy="40" r="40"/><circle class="cls-1" cx="200" cy="40" r="40"/><circle class="cls-1" cx="280" cy="40" r="40"/><circle class="cls-1" cx="360" cy="40" r="40"/><circle class="cls-1" cx="440" cy="40" r="40"/><circle class="cls-1" cx="520" cy="40" r="40"/><circle class="cls-1" cx="40" cy="120" r="40"/><circle class="cls-1" cx="120" cy="120" r="40"/><circle class="cls-1" cx="200" cy="120" r="40"/><circle class="cls-1" cx="280" cy="120" r="40"/><circle class="cls-1" cx="360" cy="120" r="40"/><circle class="cls-1" cx="440" cy="120" r="40"/><circle class="cls-1" cx="520" cy="120" r="40"/><circle class="cls-1" cx="40" cy="200" r="40"/><circle class="cls-1" cx="120" cy="200" r="40"/><circle class="cls-1" cx="200" cy="200" r="40"/><circle class="cls-1" cx="280" cy="200" r="40"/><circle class="cls-1" cx="360" cy="200" r="40"/><circle class="cls-1" cx="440" cy="200" r="40"/><circle class="cls-1" cx="520" cy="200" r="40"/><circle class="cls-1" cx="40" cy="280" r="40"/><circle class="cls-1" cx="120" cy="280" r="40"/><circle class="cls-1" cx="200" cy="280" r="40"/><circle class="cls-1" cx="280" cy="280" r="40"/><circle class="cls-1" cx="360" cy="280" r="40"/><circle class="cls-1" cx="440" cy="280" r="40"/><circle class="cls-1" cx="520" cy="280" r="40"/><circle class="cls-1" cx="40" cy="360" r="40"/><circle class="cls-1" cx="120" cy="360" r="40"/><circle class="cls-1" cx="200" cy="360" r="40"/><circle class="cls-1" cx="280" cy="360" r="40"/><circle class="cls-1" cx="360" cy="360" r="40"/><circle class="cls-1" cx="440" cy="360" r="40"/><circle class="cls-1" cx="520" cy="360" r="40"/><circle class="cls-1" cx="40" cy="440" r="40"/><circle class="cls-1" cx="120" cy="440" r="40"/><circle class="cls-1" cx="200" cy="440" r="40"/><circle class="cls-1" cx="280" cy="440" r="40"/><circle class="cls-1" cx="360" cy="440" r="40"/><circle class="cls-1" cx="440" cy="440" r="40"/><circle class="cls-1" cx="520" cy="440" r="40"/><circle class="cls-1" cx="40" cy="520" r="40"/><circle class="cls-1" cx="120" cy="520" r="40"/><circle class="cls-1" cx="200" cy="520" r="40"/><circle class="cls-1" cx="280" cy="520" r="40"/><circle class="cls-1" cx="360" cy="520" r="40"/><circle class="cls-1" cx="440" cy="520" r="40"/><circle class="cls-1" cx="520" cy="520" r="40"/></svg>