<svg id="Layer_1" data-name="Layer 1" xmlns="http://www.w3.org/2000/svg" xmlns:xlink="http://www.w3.org/1999/xlink" viewBox="0 0 176 40"><defs><style>.cls-1{fill:none;}.cls-2{clip-path:url(#clip-path);}.cls-3{fill:#ee2d24;}.cls-4{fill:#fff;}.cls-4,.cls-5{fill-rule:evenodd;}.cls-5{fill:#342e36;}</style><clipPath id="clip-path"><rect class="cls-1" width="176" height="40"/></clipPath></defs><g class="cls-2"><path class="cls-3" d="M39.12,0H0V40H39.12Z"/><path class="cls-4" d="M16.14,6.79H14.55V9.44h1.59Zm0,7.76H14.55V30.2h1.59Zm4.55-4h-1.6V26.36a3.92,3.92,0,0,0,.32,1.58,4.22,4.22,0,0,0,.85,1.31,4.09,4.09,0,0,0,1.28.87,3.81,3.81,0,0,0,3.1,0,4.06,4.06,0,0,0,1.26-.87,3.82,3.82,0,0,0,.86-1.31,3.9,3.9,0,0,0,.3-1.58H25.48a2.48,2.48,0,0,1-.18.93,2.42,2.42,0,0,1-.52.78,2.37,2.37,0,0,1-.78.54,2.4,2.4,0,0,1-.92.19,2.44,2.44,0,0,1-.92-.19,2.6,2.6,0,0,1-.78-.54,2.24,2.24,0,0,1-.51-.78,2.48,2.48,0,0,1-.18-.93V16.26h5.76V14.64H20.69Z"/><path class="cls-5" d="M58.57,30.41a7.58,7.58,0,0,1-3.08-.63,8.64,8.64,0,0,1-4.75-6,8.39,8.39,0,0,1,.44-4.73,8.13,8.13,0,0,1,4.24-4.33,7.11,7.11,0,0,1,3.07-.64,5.62,5.62,0,0,1,2.51.6,8.35,8.35,0,0,1,2.23,1.64l-1.78,1.82a5.72,5.72,0,0,0-1.41-1,3,3,0,0,0-1.49-.4,5.13,5.13,0,0,0-3.77,1.6,6,6,0,0,0-1.57,3.95,5.31,5.31,0,0,0,.43,2.11,5.59,5.59,0,0,0,1.14,1.82,5.78,5.78,0,0,0,1.69,1.16,5.11,5.11,0,0,0,2.08.44A3.12,3.12,0,0,0,60,27.39a5,5,0,0,0,1.41-1.05l1.78,1.82A8.07,8.07,0,0,1,61,29.78,5.59,5.59,0,0,1,58.57,30.41ZM72.5,14.24a7.9,7.9,0,0,1,5.62,2.37,8.42,8.42,0,0,1,2.35,5.78,8,8,0,0,1-.64,3.17,8.1,8.1,0,0,1-1.78,2.58A8.41,8.41,0,0,1,75.52,30a7.22,7.22,0,0,1-6.14-.09,8.33,8.33,0,0,1-2.51-1.82,7.92,7.92,0,0,1-1.77-2.58,8,8,0,0,1-.65-3.17,8.38,8.38,0,0,1,2.44-5.69,7.77,7.77,0,0,1,5.61-2.37Zm0,2.68a5,5,0,0,0-2.09.43,5.44,5.44,0,0,0-2.81,2.91,5.76,5.76,0,0,0-.41,2.13,5.62,5.62,0,0,0,.41,2.11,5.12,5.12,0,0,0,2.94,3,5.31,5.31,0,0,0,7.08-3A5.62,5.62,0,0,0,78,22.39a5.76,5.76,0,0,0-.41-2.13,5.43,5.43,0,0,0-2.86-2.91A4.93,4.93,0,0,0,72.5,16.92Zm19.55-2a5.71,5.71,0,0,0-2.71-.66,6,6,0,0,0-2.36.49A6.51,6.51,0,0,0,85,16.08a6.22,6.22,0,0,0-1.8,4.4V30.2h2.6V20.48a3.36,3.36,0,0,1,.26-1.36A3.52,3.52,0,0,1,86.85,18,3.27,3.27,0,0,1,88,17.21a3.44,3.44,0,0,1,1.37-.29,3.52,3.52,0,0,1,2.48,1,3.47,3.47,0,0,1,1,2.51V30.2h2.58V20.48a3.28,3.28,0,0,1,.28-1.38A3.6,3.6,0,0,1,96.46,18a3.2,3.2,0,0,1,1.1-.76A3.5,3.5,0,0,1,99,16.92a3.34,3.34,0,0,1,1.35.29,3.5,3.5,0,0,1,1.1.76,3.58,3.58,0,0,1,.77,1.15,3.51,3.51,0,0,1,.27,1.36V30.2h2.7V20.48a5.77,5.77,0,0,0-.5-2.42,6.08,6.08,0,0,0-1.3-2,6.7,6.7,0,0,0-1.94-1.35A5.93,5.93,0,0,0,99,14.24a5.61,5.61,0,0,0-2.72.66,6.39,6.39,0,0,0-2.12,1.82A6.16,6.16,0,0,0,92.05,14.9Zm24-.6a7.63,7.63,0,0,1,3.16.63,8.22,8.22,0,0,1,5,7.59,8.13,8.13,0,0,1-.62,3.16,8.83,8.83,0,0,1-1.78,2.57,7.94,7.94,0,0,1-2.55,1.82,7.31,7.31,0,0,1-3.09.63,7.6,7.6,0,0,1-5.34-2.09v9.1h-2.7V22.45A8.59,8.59,0,0,1,113,14.86,7.69,7.69,0,0,1,116,14.3ZM116,17a5.31,5.31,0,0,0-3,.9,5.52,5.52,0,0,0-2,2.43,5.78,5.78,0,0,0,0,4.25,5.06,5.06,0,0,0,1.14,1.82A5.91,5.91,0,0,0,114,27.58a5.25,5.25,0,0,0,4.16,0A5.91,5.91,0,0,0,120,26.39a5.06,5.06,0,0,0,1.14-1.82,5.78,5.78,0,0,0,0-4.25,5.52,5.52,0,0,0-2-2.43,5.31,5.31,0,0,0-3-.9Zm21.15-2.15a7.72,7.72,0,0,0-3.11-.63,7.38,7.38,0,0,0-3,.51,9,9,0,0,0-4.3,4.42,8.32,8.32,0,0,0-.63,3.16,8.41,8.41,0,0,0,.63,3.17A8,8,0,0,0,131,29.76a7.43,7.43,0,0,0,3.08.64,8,8,0,0,0,5.33-2.06v1.82h2.65v-7.8a8.15,8.15,0,0,0-4.89-7.52ZM132,17.32a5,5,0,0,1,2.07-.42,5.25,5.25,0,0,1,2.06.4,5.41,5.41,0,0,1,1.75,1.18A6.11,6.11,0,0,1,139,20.3a5.52,5.52,0,0,1,0,4.17,5.41,5.41,0,0,1-2.87,3,5.25,5.25,0,0,1-2.11.44,5.1,5.1,0,0,1-2.07-.44,5.21,5.21,0,0,1-1.77-1.17,5.38,5.38,0,0,1-1.14-1.72,5.49,5.49,0,0,1,0-4.26,5.76,5.76,0,0,1,1.14-1.82A5,5,0,0,1,132,17.32Zm21-3.08a7.67,7.67,0,0,1,3.09.64,8,8,0,0,1,2.55,1.82,8.36,8.36,0,0,1,1.78,2.6,8.45,8.45,0,0,1,.62,3.18V30.2h-2.71V22.39a5.4,5.4,0,0,0-.42-2.13,5.33,5.33,0,0,0-1.12-1.82A5.25,5.25,0,0,0,153,16.92a4.94,4.94,0,0,0-2.08.43,5.22,5.22,0,0,0-2.83,3,5.34,5.34,0,0,0-.43,2.05V30.2H145.1V22.39a8.45,8.45,0,0,1,.62-3.18A8,8,0,0,1,150,14.88,7.57,7.57,0,0,1,153,14.24ZM167.53,30a6.47,6.47,0,0,0,4.22.25,6.72,6.72,0,0,0,1.65-.83v1.81a2.94,2.94,0,0,1-.32,1.4,3.8,3.8,0,0,1-.87,1.15,3.87,3.87,0,0,1-1.3.76,4.37,4.37,0,0,1-1.6.3v2.65a7,7,0,0,0,2.63-.49,6.9,6.9,0,0,0,2.12-1.33,6.21,6.21,0,0,0,1.42-2,5.94,5.94,0,0,0,.52-2.46V14.55h-2.6v9.68a3.91,3.91,0,0,1-.26,1.4,4.07,4.07,0,0,1-.77,1.15,3.2,3.2,0,0,1-1.1.76,3.61,3.61,0,0,1-2.74,0,3.5,3.5,0,0,1-1.1-.76,4.15,4.15,0,0,1-.75-1.15,3.71,3.71,0,0,1-.27-1.4V14.55h-2.63v9.68a5.77,5.77,0,0,0,.5,2.42,6.27,6.27,0,0,0,1.31,2A6.05,6.05,0,0,0,167.53,30Z"/></g></svg>